<?xml version="1.0" encoding="UTF-8"?>
<!-- Generator: Adobe Illustrator 19.1.0, SVG Export Plug-In . SVG Version: 6.00 Build 0)  -->
<svg xmlns="http://www.w3.org/2000/svg" xmlns:xlink="http://www.w3.org/1999/xlink" xmlns:dc="http://purl.org/dc/elements/1.1/" xmlns:cc="http://creativecommons.org/ns#" xmlns:rdf="http://www.w3.org/1999/02/22-rdf-syntax-ns#" version="1.1" id="DESIGNS" x="0px" y="0px" width="32px" height="32px" viewBox="0 0 32 32" style="enable-background:new 0 0 32 32;" xml:space="preserve">
<title property="dc:title">to broadcast</title><desc property="dc:description">An icon for "broadcast" from the Lines and Angles series on to [icon]. Downloaded from http://www.toicon.com/icons/lines-and-angles_broadcast by 127.0.0.1 on 2017-07-10. Licensed CC-BY, see http://toicon.com/license/ for details.</desc>
<path class="linesandangles_een" d="M16,20c2.757,0,5-2.243,5-5V9c0-2.757-2.243-5-5-5s-5,2.243-5,5v6C11,17.757,13.243,20,16,20z   M13,9c0-1.654,1.346-3,3-3s3,1.346,3,3v6c0,1.654-1.346,3-3,3s-3-1.346-3-3V9z M24,12v3c0,4.072-3.06,7.436-7,7.931V24  c0,1.105,0.895,2,2,2h2v2H11v-2h2c1.105,0,2-0.895,2-2v-1.069C11.06,22.436,8,19.072,8,15v-3h2v3c0,3.309,2.691,6,6,6s6-2.691,6-6  v-3H24z" style="fill: #111918;"/>
<metadata><work rdf:about=""><format>image/svg+xml</format><type rdf:resource="http://purl.org/dc/dcmitype/StillImage"/><license rdf:resource="http://creativecommons.org/licenses/by/4.0/"/><attributionname>Shannon E Thomas</attributionname><attributionurl>http://www.toicon.com/icons/lines-and-angles_broadcast</attributionurl></work></metadata></svg>
