<?xml version="1.0" encoding="UTF-8" standalone="no"?>
<!-- Generator: Adobe Illustrator 19.1.0, SVG Export Plug-In . SVG Version: 6.00 Build 0)  -->

<svg
   version="1.1"
   id="DESIGNS"
   x="0px"
   y="0px"
   width="32px"
   height="32px"
   viewBox="0 0 32 32"
   style="enable-background:new 0 0 32 32;"
   xml:space="preserve"
   xmlns="http://www.w3.org/2000/svg"
   xmlns:svg="http://www.w3.org/2000/svg"
   xmlns:rdf="http://www.w3.org/1999/02/22-rdf-syntax-ns#"
   xmlns:cc="http://creativecommons.org/ns#"
   xmlns:dc="http://purl.org/dc/elements/1.1/"><defs
   id="defs1" />
<title
   property="dc:title"
   id="title1">to broadcast</title><desc
   property="dc:description"
   id="desc1">An icon for &quot;broadcast&quot; from the Lines and Angles series on to [icon]. Downloaded from http://www.toicon.com/icons/lines-and-angles_broadcast by 127.0.0.1 on 2017-07-10. Licensed CC-BY, see http://toicon.com/license/ for details.</desc>

<metadata
   id="metadata1"><work
     rdf:about=""><format>image/svg+xml</format><type
       rdf:resource="http://purl.org/dc/dcmitype/StillImage" /><license
       rdf:resource="http://creativecommons.org/licenses/by/4.0/" /><attributionname>Shannon E Thomas</attributionname><attributionurl>http://www.toicon.com/icons/lines-and-angles_broadcast</attributionurl></work><rdf:RDF><cc:Work
       rdf:about=""><dc:title>to broadcast</dc:title></cc:Work></rdf:RDF></metadata><ellipse
   style="fill:#ffffff;stroke:#ffffff;fill-opacity:1"
   id="path2"
   cx="16.068966"
   cy="15.992393"
   rx="15.98073"
   ry="15.911765" /><path
   class="linesandangles_een"
   d="m 16,20 c 2.757,0 5,-2.243 5,-5 V 9 C 21,6.243 18.757,4 16,4 13.243,4 11,6.243 11,9 v 6 c 0,2.757 2.243,5 5,5 z M 13,9 c 0,-1.654 1.346,-3 3,-3 1.654,0 3,1.346 3,3 v 6 c 0,1.654 -1.346,3 -3,3 -1.654,0 -3,-1.346 -3,-3 z m 11,3 v 3 c 0,4.072 -3.06,7.436 -7,7.931 V 24 c 0,1.105 0.895,2 2,2 h 2 v 2 H 11 v -2 h 2 c 1.105,0 2,-0.895 2,-2 V 22.931 C 11.06,22.436 8,19.072 8,15 v -3 h 2 v 3 c 0,3.309 2.691,6 6,6 3.309,0 6,-2.691 6,-6 v -3 z"
   style="fill:#111918"
   id="path1" /></svg>
